# xmcd CD database file
#
# Track frame offsets:
#	150
#	28233
#	45283
#	84150
#	104906
#	137137
#	154539
#	180160
#	205893
#	225119
#
# Disc length: 3519 seconds
#
# Revision: 0
# Processed by: cddbd v1.5.2PL0 Copyright (c) Steve Scherf et al.
# Submitted via: CDex 1.51
#
DISCID=6f0dbd0a
DTITLE=The Rick Hollander Quartet - On The Up And Up
DYEAR=2016
DGENRE=Jazz
TTITLE0=01-Indian Summer
TTITLE1=02-A Coat For All Seasons
TTITLE2=03-An Appraisal in Gold
TTITLE3=04-Dancing Fly Reflections
TTITLE4=05-I Didn't Know What Time It Was
TTITLE5=06-Got A Crasy Kind Of Way
TTITLE6=07-Oh Boy
TTITLE7=08-What A Time It Was
TTITLE8=09-How You Knocked Me Off My Feet
TTITLE9=10-You Lied To Me
EXTD=YEAR: 2016
EXTT0=
EXTT1=
EXTT2=
EXTT3=
EXTT4=
EXTT5=
EXTT6=
EXTT7=
EXTT8=
EXTT9=
PLAYORDER=
